<?xml version="1.0" encoding="UTF-8" standalone="no"?>
<!-- Created with Inkscape (http://www.inkscape.org/) -->

<svg
   width="30.515411mm"
   height="10.653086mm"
   viewBox="0 0 30.514545 10.652783"
   version="1.1"
   id="svg5"
   inkscape:version="1.2.2 (b0a8486541, 2022-12-01)"
   sodipodi:docname="predel.svg"
   xmlns:inkscape="http://www.inkscape.org/namespaces/inkscape"
   xmlns:sodipodi="http://sodipodi.sourceforge.net/DTD/sodipodi-0.dtd"
   xmlns="http://www.w3.org/2000/svg"
   xmlns:svg="http://www.w3.org/2000/svg">
  <sodipodi:namedview
     id="namedview7"
     pagecolor="#ffffff"
     bordercolor="#666666"
     borderopacity="1.0"
     inkscape:showpageshadow="2"
     inkscape:pageopacity="0.0"
     inkscape:pagecheckerboard="0"
     inkscape:deskcolor="#d1d1d1"
     inkscape:document-units="mm"
     showgrid="false"
     inkscape:zoom="7.2234464"
     inkscape:cx="50.806773"
     inkscape:cy="26.856986"
     inkscape:window-width="1920"
     inkscape:window-height="1028"
     inkscape:window-x="0"
     inkscape:window-y="34"
     inkscape:window-maximized="1"
     inkscape:current-layer="layer1" />
  <defs
     id="defs2">
    <inkscape:path-effect
       effect="fillet_chamfer"
       id="path-effect2012"
       is_visible="true"
       lpeversion="1"
       nodesatellites_param="F,0,0,1,0,0,0,1 @ F,0,0,1,0,1.3229167,0,1 @ F,0,0,1,0,2.9642243,0,1 @ F,0,0,1,0,0,0,1 | F,0,0,1,0,0,0,1 @ F,0,0,1,0,0,0,1 | F,0,1,1,0,0,0,1 @ F,0,1,1,0,4.7683034,0,1 @ F,0,0,1,0,3.5479169,0,1 @ F,0,0,1,0,0,0,1 | F,0,0,1,0,0,0,1 @ F,0,0,1,0,3.559108,0,1 @ F,0,0,1,0,1.4969164,0,1 @ F,0,0,1,0,0,0,1 | F,0,0,1,0,0,0,1 @ F,0,0,1,0,1.3229167,0,1 @ F,0,0,1,0,1.3229167,0,1 @ F,0,0,1,0,0,0,1 | F,0,0,1,0,0,0,1 @ F,0,0,1,0,0,0,1"
       unit="px"
       method="bezier"
       mode="F"
       radius="5"
       chamfer_steps="1"
       flexible="false"
       use_knot_distance="true"
       apply_no_radius="true"
       apply_with_radius="true"
       only_selected="false"
       hide_knots="false" />
    <inkscape:path-effect
       effect="fillet_chamfer"
       id="path-effect2000"
       is_visible="true"
       lpeversion="1"
       nodesatellites_param="C,0,0,1,0,0,0,10 @ F,0,1,1,0,0.5,0,10 @ F,0,1,1,0,0.5,0,10 @ F,0,1,1,0,0.5,0,10 @ C,0,0,1,0,0.5,0,10 | C,0,0,1,0,0,0,10 @ C,0,0,1,0,0.5,0,10 | C,0,0,1,0,0,0,10 @ F,0,1,1,0,0.5,0,10 @ F,0,1,1,0,0.5,0,10 @ F,0,1,1,0,0.5,0,10 @ C,0,0,1,0,0.5,0,10 | C,0,0,1,0,0,0,10 @ F,0,1,1,0,0.5,0,10 @ F,0,1,1,0,0.5,0,10 @ F,0,1,1,0,0.5,0,10 @ C,0,0,1,0,0.5,0,10 | C,0,0,1,0,0,0,10 @ F,0,1,1,0,0.5,0,10 @ F,0,1,1,0,0.5,0,10 @ F,0,1,1,0,0.5,0,10 @ C,0,0,1,0,0.5,0,10 | C,0,0,1,0,0,0,10 @ C,0,0,1,0,0.5,0,10"
       unit="mm"
       method="arc"
       mode="F"
       radius="50"
       chamfer_steps="10"
       flexible="true"
       use_knot_distance="false"
       apply_no_radius="true"
       apply_with_radius="true"
       only_selected="true"
       hide_knots="false" />
    <clipPath
       clipPathUnits="userSpaceOnUse"
       id="clipPath2204">
      <rect
         style="display:inline;fill:none;fill-opacity:0.165443;stroke:#000000;stroke-width:0.299992"
         id="rect2206"
         width="30.513546"
         height="10.651783"
         x="20.538486"
         y="105.03284" />
    </clipPath>
  </defs>
  <g
     inkscape:label="Layer 1"
     inkscape:groupmode="layer"
     id="layer1"
     transform="translate(-20.537986,-105.03234)">
    <path
       id="path1477"
       style="display:none;fill:none;stroke:#000000;stroke-width:0.299991;stroke-linecap:butt;stroke-linejoin:miter;stroke-dasharray:none;stroke-opacity:1"
       d="m 51.05124,103.88839 c -1.703367,-0.009 -1.319401,0.7268 -1.986795,0.60442 -0.788654,-0.14462 -0.605359,-1.21203 -0.602291,-1.99518 0.06144,-1.17526 0.09814,-1.18604 0.03396,-2.42048 -0.06418,-1.234438 0.375716,-1.87899 -0.22427,-2.516312 -0.494667,-0.525446 -0.626461,0.460662 -1.40748,0.720972 -0.0163,3.13313 -0.577755,3.47811 -0.958203,3.45089 -0.288057,-0.0206 -0.624191,-0.18778 -0.658629,-1.875434 -0.01401,-0.686562 -0.168655,-1.883276 -1.073534,-2.093388 -0.392642,-0.672846 -0.718151,-0.21503 -0.825476,0.591292 0.01291,1.80781 0.0056,2.73578 0.0412,4.12047 0.03561,1.3843 -0.05934,0.28838 -0.09699,1.67418 -0.427256,0.78298 -0.865785,0.0192 -1.342958,-0.19531 -0.32224,-0.15073 -0.620223,-0.25985 -0.924434,-0.29263 -0.304211,-0.0328 -0.614651,0.0108 -0.961808,0.16536 -0.591201,0.22816 -1.064561,1.10142 -1.621114,0.37574 0.05591,-2.35091 0.02548,-2.3079 -0.55407,-2.27033 -0.69524,0.0116 -1.435972,-0.37753 -1.476013,-1.09783 -0.169601,-0.74577 -0.09011,-1.497816 -0.06546,-2.235048 0.05395,-0.405062 0.05116,-0.247272 -0.277262,-0.950054 -0.219929,-0.249916 -0.590542,-0.447236 -1.035841,0.0651 -0.400439,0.887464 -0.284958,0.0899 -0.3129,1.325676 -0.01741,0.769872 0.238716,2.072696 -0.312022,2.671346 -0.825323,0.46509 -1.583101,-0.0418 -1.51666,0.85176 -0.108887,1.08463 0.30901,1.88211 -0.510831,1.97327 -0.646995,0.0719 -0.138301,-0.57739 -1.798195,-0.64848 -1.680674,-0.072 -1.295905,0.7268 -1.963299,0.60442 -0.788654,-0.14462 -0.605359,-1.21203 -0.602291,-1.99518 0.06144,-1.17526 0.09814,-1.18604 0.03396,-2.42048 -0.06418,-1.234438 0.375716,-1.87899 -0.22427,-2.516312 -0.494667,-0.525446 -0.626461,0.460662 -1.40748,0.720972 -0.0163,3.13313 -0.577755,3.47811 -0.958203,3.45089 -0.288057,-0.0206 -0.624191,-0.18778 -0.658629,-1.875434 -0.01401,-0.686562 -0.168655,-1.883276 -1.073534,-2.093388 -0.392642,-0.672846 -0.718151,-0.21503 -0.825476,0.591292 0.01291,1.80781 0.0056,2.73578 0.0412,4.12047 0.03561,1.3843 -0.05934,0.28838 -0.09699,1.67418 -0.427256,0.78298 -0.865785,0.0192 -1.342958,-0.19531 -0.32224,-0.15073 -0.659751,-0.28706 -0.963962,-0.29263"
       sodipodi:nodetypes="cscssccscccccccccccccsccccccssccscccccc" />
    <path
       id="the_path"
       style="fill:none;stroke:#000000;stroke-width:0.264576px;stroke-linecap:butt;stroke-linejoin:miter;stroke-opacity:1"
       d="m 18.507038,105.03284 v 1.05893 c -0.355453,5.24235 -2.684817,-4.49936 -4.94248,8.60652 v 0.98633 m -1.471568,0 v -10.65178 m 3.028987,10.65178 v -0.98633 c 5.418235,-10.44216 3.158284,0 7.36314,-8.60652 v -1.05893 m 1.51858,0 v 1.05893 c -0.830835,5.64249 -0.501167,5.60761 -1.86771,5.30768 -0.594039,-0.13037 -1.185141,-1.50366 -3.855726,3.29884 v 0.98633 m 3.765302,0 v -0.98633 c 2.54834,-3.85086 5.668312,4.65655 3.485926,-8.60652 v -1.05893 m 3.000338,0 v 10.65178 m 10.344267,-10.65178 v 1.05893 c -0.355453,5.24235 -2.684817,-4.49936 -4.94248,8.60652 v 0.98633 m -1.471567,0 v -10.65178 m 3.028986,10.65178 v -0.98633 c 5.418235,-10.44216 3.158284,0 7.363131,-8.60652 v -1.05893 m 1.518579,0 v 1.05893 c -0.830835,5.64249 -0.501167,5.60761 -1.867706,5.30768 -0.594035,-0.13037 -1.185135,-1.50366 -3.85572,3.29884 v 0.98633 m 3.765296,0 v -0.98633 c 2.548336,-3.85086 5.668308,4.65655 3.485922,-8.60652 v -1.05893 m 3.000338,0 v 10.65178"
       sodipodi:nodetypes="cccccccccccccccccccccccccccccccccccccccccc"
       clip-path="url(#clipPath2204)" />
    <rect
       style="opacity:0.119732;fill:none;fill-opacity:0.165443;stroke:#000000;stroke-width:0.00099997"
       id="rect2202"
       width="30.513546"
       height="10.651783"
       x="20.538486"
       y="105.03284" />
  </g>
</svg>
