<?xml version="1.0" encoding="UTF-8" standalone="no"?>
<!-- Created with Inkscape (http://www.inkscape.org/) -->

<svg
   width="30.50527mm"
   height="7.4473252mm"
   viewBox="0 0 30.504404 7.4471138"
   version="1.1"
   id="svg5"
   inkscape:version="1.2.2 (b0a8486541, 2022-12-01)"
   sodipodi:docname="wire1.svg"
   xmlns:inkscape="http://www.inkscape.org/namespaces/inkscape"
   xmlns:sodipodi="http://sodipodi.sourceforge.net/DTD/sodipodi-0.dtd"
   xmlns="http://www.w3.org/2000/svg"
   xmlns:svg="http://www.w3.org/2000/svg">
  <sodipodi:namedview
     id="namedview7"
     pagecolor="#ffffff"
     bordercolor="#666666"
     borderopacity="1.0"
     inkscape:showpageshadow="2"
     inkscape:pageopacity="0.0"
     inkscape:pagecheckerboard="0"
     inkscape:deskcolor="#d1d1d1"
     inkscape:document-units="mm"
     showgrid="false"
     inkscape:zoom="7.1834785"
     inkscape:cx="30.556227"
     inkscape:cy="23.386998"
     inkscape:window-width="1920"
     inkscape:window-height="1028"
     inkscape:window-x="0"
     inkscape:window-y="34"
     inkscape:window-maximized="1"
     inkscape:current-layer="layer1" />
  <defs
     id="defs2" />
  <g
     inkscape:label="Layer 1"
     inkscape:groupmode="layer"
     id="layer1"
     transform="translate(-30.562989,-107.77013)">
    <path
       id="the_path"
       style="fill:none;stroke:#000000;stroke-width:0.299991;stroke-linecap:butt;stroke-linejoin:miter;stroke-dasharray:none;stroke-opacity:1"
       d="m 61.066066,114.18754 c -0.339112,0.003 -0.946676,0.0108 -1.293833,0.16536 -0.591201,0.22816 -0.876202,1.10142 -1.432755,0.37574 0.05591,-2.35091 0.02548,-2.3079 -0.55407,-2.27033 -0.69524,0.0116 -1.435972,-0.37753 -1.476013,-1.09783 -0.169601,-0.74577 -0.09011,-1.49781 -0.06546,-2.23504 0.05395,-0.40506 0.05116,-0.24727 -0.277262,-0.95005 -0.219929,-0.24992 -0.590542,-0.44724 -1.035841,0.0651 -0.400439,0.88746 -0.284958,0.0899 -0.3129,1.32567 -0.01741,0.76987 0.238716,2.07269 -0.312022,2.67134 -0.825323,0.46509 -1.583101,-0.0418 -1.51666,0.85176 -0.108887,1.08463 0.30901,1.88211 -0.510831,1.97327 -0.646995,0.0719 -0.138301,-0.57739 -1.795945,-0.64848 -1.678424,-0.072 -1.250521,0.7268 -1.917915,0.60442 -0.788654,-0.14462 -0.605359,-1.21203 -0.602291,-1.99518 0.06144,-1.17526 0.09814,-1.18604 0.03396,-2.42048 -0.06418,-1.23443 0.375716,-1.87898 -0.22427,-2.5163 -0.494667,-0.52545 -0.663291,0.46066 -1.44431,0.72097 -0.0163,3.13312 -0.577755,3.4781 -0.958203,3.45088 -0.288057,-0.0206 -0.624191,-0.18778 -0.658629,-1.87543 -0.01401,-0.68656 -0.131824,-1.88327 -1.036703,-2.09338 -0.392642,-0.67285 -0.718151,-0.21503 -0.825476,0.59129 0.01291,1.8078 0.0056,2.73577 0.0412,4.12046 0.03561,1.3843 -0.05934,0.28838 -0.09699,1.67418 -0.427256,0.78298 -0.792123,0.0192 -1.269296,-0.19531 -0.32224,-0.15073 -0.620223,-0.25985 -0.924434,-0.29263 -0.304211,-0.0328 -0.497854,0.0108 -0.845011,0.16536 -0.591201,0.22816 -1.064561,1.10142 -1.621114,0.37574 0.05591,-2.35091 0.02548,-2.3079 -0.55407,-2.27033 -0.69524,0.0116 -1.435972,-0.37753 -1.476013,-1.09783 -0.169601,-0.74577 -0.09011,-1.49781 -0.06546,-2.23504 0.05395,-0.40506 0.05116,-0.24727 -0.277262,-0.95005 -0.219929,-0.24992 -0.590542,-0.44724 -1.035841,0.0651 -0.400439,0.88746 -0.284958,0.0899 -0.3129,1.32567 -0.01741,0.76987 0.238716,2.07269 -0.312022,2.67134 -0.825323,0.46509 -1.505237,-0.0418 -1.438796,0.85176 -0.108887,1.08463 0.30901,1.88211 -0.510831,1.97327 -0.646995,0.0719 0.06839,-0.64737 -1.586707,-0.64848"
       sodipodi:nodetypes="ccccccccsccccscssccscccccccccccccscccc" />
  </g>
</svg>
