<?xml version="1.0" encoding="UTF-8" standalone="no"?>
<!-- Created with Inkscape (http://www.inkscape.org/) -->

<svg
   width="30.514412mm"
   height="7.4473181mm"
   viewBox="0 0 30.513546 7.4471066"
   version="1.1"
   id="svg5"
   inkscape:version="1.2.2 (b0a8486541, 2022-12-01)"
   sodipodi:docname="wire.svg"
   xmlns:inkscape="http://www.inkscape.org/namespaces/inkscape"
   xmlns:sodipodi="http://sodipodi.sourceforge.net/DTD/sodipodi-0.dtd"
   xmlns="http://www.w3.org/2000/svg"
   xmlns:svg="http://www.w3.org/2000/svg">
  <sodipodi:namedview
     id="namedview7"
     pagecolor="#ffffff"
     bordercolor="#666666"
     borderopacity="1.0"
     inkscape:showpageshadow="2"
     inkscape:pageopacity="0.0"
     inkscape:pagecheckerboard="0"
     inkscape:deskcolor="#d1d1d1"
     inkscape:document-units="mm"
     showgrid="false"
     inkscape:zoom="9.9833525"
     inkscape:cx="29.799609"
     inkscape:cy="17.929849"
     inkscape:window-width="1920"
     inkscape:window-height="1028"
     inkscape:window-x="0"
     inkscape:window-y="34"
     inkscape:window-maximized="1"
     inkscape:current-layer="layer1" />
  <defs
     id="defs2" />
  <g
     inkscape:label="Layer 1"
     inkscape:groupmode="layer"
     id="layer1"
     transform="translate(-30.567938,-97.187101)">
    <path
       id="the_path"
       style="fill:none;stroke:#000000;stroke-width:0.299991;stroke-linecap:butt;stroke-linejoin:miter;stroke-dasharray:none;stroke-opacity:1"
       d="m 61.080692,103.83101 c -1.703367,-0.009 -1.319401,0.7268 -1.986795,0.60442 -0.788654,-0.14462 -0.605359,-1.21203 -0.602291,-1.99518 0.06144,-1.17526 0.09814,-1.18604 0.03396,-2.42048 -0.06418,-1.23443 0.375716,-1.87898 -0.22427,-2.516298 -0.494667,-0.525445 -0.732468,0.460666 -1.513487,0.720973 -0.0163,3.133115 -0.577755,3.478095 -0.958203,3.450875 -0.288057,-0.0206 -0.624191,-0.18778 -0.658629,-1.875425 -0.01401,-0.686562 -0.06265,-1.883275 -0.967527,-2.093383 -0.392642,-0.672849 -0.718151,-0.21503 -0.825476,0.591291 0.01291,1.807797 0.0056,2.735767 0.0412,4.120457 0.03561,1.3843 -0.05934,0.28838 -0.09699,1.67418 -0.427256,0.78298 -0.865785,0.0192 -1.342958,-0.19531 -0.32224,-0.15073 -0.620223,-0.25985 -0.924434,-0.29263 -0.304211,-0.0328 -0.614651,0.0108 -0.961808,0.16536 -0.591201,0.22816 -1.064561,1.10142 -1.621114,0.37574 0.05591,-2.35091 0.02548,-2.3079 -0.55407,-2.27033 -0.69524,0.0116 -1.435972,-0.37753 -1.476013,-1.09783 -0.169601,-0.74577 -0.09011,-1.497805 -0.06546,-2.235033 0.05395,-0.405068 0.05116,-0.247272 -0.277262,-0.95005 -0.219929,-0.249923 -0.590542,-0.447239 -1.035841,0.0651 -0.400439,0.887453 -0.284958,0.08989 -0.3129,1.325671 -0.01741,0.769869 0.238716,2.072682 -0.312022,2.671332 -0.825323,0.46509 -1.583101,-0.0418 -1.51666,0.85176 -0.108887,1.08463 0.30901,1.88211 -0.510831,1.97327 -0.646995,0.0719 -0.138301,-0.57739 -1.798195,-0.64848 -1.680674,-0.072 -1.295905,0.7268 -1.963299,0.60442 -0.788654,-0.14462 -0.605359,-1.21203 -0.602291,-1.99518 0.06144,-1.17526 0.09814,-1.18604 0.03396,-2.42048 -0.06418,-1.23443 0.375716,-1.87898 -0.22427,-2.516298 -0.494667,-0.525445 -0.573458,0.460666 -1.354477,0.720973 -0.0163,3.133115 -0.577755,3.478095 -0.958203,3.450875 -0.288057,-0.0206 -0.624191,-0.18778 -0.658629,-1.875425 -0.01401,-0.686562 -0.221658,-1.883275 -1.126537,-2.093383 -0.392642,-0.672849 -0.718151,-0.21503 -0.825476,0.591291 0.01291,1.807797 0.0056,2.735767 0.0412,4.120457 0.03561,1.3843 -0.05934,0.28838 -0.09699,1.67418 -0.427256,0.78298 -0.865785,0.0192 -1.342958,-0.19531 -0.32224,-0.15073 -0.659751,-0.28706 -0.963962,-0.29263"
       sodipodi:nodetypes="cscssccscccccccccccccsccccccssccscccccc" />
  </g>
</svg>
