<?xml version="1.0" encoding="UTF-8" standalone="no"?>
<!-- Created with Inkscape (http://www.inkscape.org/) -->

<svg
   width="40.954308mm"
   height="8.1452312mm"
   viewBox="0 0 40.954307 8.1452312"
   version="1.1"
   id="svg5"
   inkscape:version="1.2.2 (b0a8486541, 2022-12-01)"
   sodipodi:docname="wire.svg"
   xmlns:inkscape="http://www.inkscape.org/namespaces/inkscape"
   xmlns:sodipodi="http://sodipodi.sourceforge.net/DTD/sodipodi-0.dtd"
   xmlns="http://www.w3.org/2000/svg"
   xmlns:svg="http://www.w3.org/2000/svg">
  <sodipodi:namedview
     id="namedview7"
     pagecolor="#ffffff"
     bordercolor="#666666"
     borderopacity="1.0"
     inkscape:showpageshadow="2"
     inkscape:pageopacity="0.0"
     inkscape:pagecheckerboard="0"
     inkscape:deskcolor="#d1d1d1"
     inkscape:document-units="mm"
     showgrid="false"
     inkscape:zoom="3.9811471"
     inkscape:cx="145.30988"
     inkscape:cy="-28.132595"
     inkscape:window-width="1920"
     inkscape:window-height="1028"
     inkscape:window-x="0"
     inkscape:window-y="34"
     inkscape:window-maximized="1"
     inkscape:current-layer="layer1" />
  <defs
     id="defs2" />
  <g
     inkscape:label="Layer 1"
     inkscape:groupmode="layer"
     id="layer1"
     transform="translate(-27.506778,-96.837398)">
    <path
       id="path1175"
       style="fill:none;stroke:#000000;stroke-width:1;stroke-linecap:butt;stroke-linejoin:miter;stroke-dasharray:none;stroke-opacity:1"
       d="m 68.452895,101.87527 c -0.70789,0.0116 -1.526487,-0.37753 -1.566528,-1.09783 -0.169601,-0.74577 -0.09011,-1.497805 -0.06546,-2.235033 0.05395,-0.405068 0.05116,-0.247272 -0.277262,-0.95005 -0.219929,-0.249923 -0.590542,-0.447239 -1.035841,0.0651 -0.400439,0.887453 -0.284958,0.08989 -0.3129,1.325671 -0.01741,0.769869 0.238716,2.072682 -0.312022,2.671332 -0.825323,0.46509 -1.583101,-0.0418 -1.51666,0.85176 -0.108887,1.08463 0.30901,1.88211 -0.510831,1.97327 -0.646995,0.0719 -0.138301,-0.57739 -1.798195,-0.64848 -1.680674,-0.072 -1.37377,0.7268 -2.041164,0.60442 -0.788654,-0.14462 -0.605359,-1.21203 -0.602291,-1.99518 0.06144,-1.17526 0.09814,-1.18604 0.03396,-2.42048 -0.06418,-1.23443 0.375716,-1.87898 -0.22427,-2.516298 -0.494667,-0.525445 -0.548596,0.460666 -1.329615,0.720973 -0.0163,3.133115 -0.577755,3.478095 -0.958203,3.450875 -0.288057,-0.0206 -0.624191,-0.18778 -0.658629,-1.875425 -0.01401,-0.686562 -0.09079,-1.883275 -0.995669,-2.093383 -0.392642,-0.672849 -0.718151,-0.21503 -0.825476,0.591291 0.01291,1.807797 0.0056,2.735767 0.0412,4.120457 0.03561,1.3843 -0.05934,0.28838 -0.09699,1.67418 -0.427256,0.78298 -0.94365,0.0192 -1.420823,-0.19531 -0.644481,-0.30145 -1.191929,-0.43648 -1.886242,-0.12727 -0.591201,0.22816 -0.986696,1.10142 -1.543249,0.37574 0.05591,-2.35091 0.02548,-2.3079 -0.55407,-2.27033 -0.69524,0.0116 -1.513837,-0.37753 -1.553878,-1.09783 -0.169601,-0.74577 -0.09011,-1.497805 -0.06546,-2.235033 0.05395,-0.405068 0.05116,-0.247272 -0.277262,-0.95005 -0.219929,-0.249923 -0.590542,-0.447239 -1.035841,0.0651 -0.400439,0.887453 -0.284958,0.08989 -0.3129,1.325671 -0.01741,0.769869 0.238716,2.072682 -0.312022,2.671332 -0.825323,0.46509 -1.583101,-0.0418 -1.51666,0.85176 -0.108887,1.08463 0.30901,1.88211 -0.510831,1.97327 -0.646995,0.0719 -0.138301,-0.57739 -1.798195,-0.64848 -1.680674,-0.072 -1.37377,0.7268 -2.041164,0.60442 -0.788654,-0.14462 -0.605359,-1.21203 -0.602291,-1.99518 0.06144,-1.17526 0.09814,-1.18604 0.03396,-2.42048 -0.06418,-1.23443 0.375716,-1.87898 -0.22427,-2.516298 -0.494667,-0.525445 -0.548596,0.460666 -1.329615,0.720973 -0.0163,3.133115 -0.577755,3.478095 -0.958203,3.450875 -0.288057,-0.0206 -0.624191,-0.18778 -0.658629,-1.875425 -0.01401,-0.686562 -0.09079,-1.883275 -0.995669,-2.093383 -0.392642,-0.672849 -0.718151,-0.21503 -0.825476,0.591291 0.01291,1.807797 0.0056,2.735767 0.0412,4.120457 0.03561,1.3843 -0.05934,0.28838 -0.09699,1.67418 -0.427256,0.78298 -0.94365,0.0192 -1.420823,-0.19531 -0.644481,-0.30145 -1.191929,-0.43648 -1.886242,-0.12727 -0.591201,0.22816 -0.986696,1.10142 -1.543249,0.37574 0.05591,-2.35091 0.02548,-2.3079 -0.56672,-2.27033"
       sodipodi:nodetypes="cccccsccssscsscssccccccccccccscccsscsscsscccccccc" />
  </g>
</svg>
